<mxfile host="Electron" modified="2023-08-19T07:13:13.961Z" agent="Mozilla/5.0 (X11; Linux x86_64) AppleWebKit/537.36 (KHTML, like Gecko) draw.io/21.6.5 Chrome/114.0.5735.243 Electron/25.3.1 Safari/537.36" etag="Y3oJQ1CIrNYU8VYF4en5" version="21.6.5" type="device" pages="4">
  <diagram id="dsc48xldkjAQaWcjTZuZ" name="连接注册">
    <mxGraphModel dx="5794" dy="2823" grid="1" gridSize="10" guides="1" tooltips="1" connect="1" arrows="1" fold="1" page="1" pageScale="1" pageWidth="827" pageHeight="1169" math="0" shadow="0">
      <root>
        <mxCell id="0" />
        <mxCell id="1" parent="0" />
        <mxCell id="0e7gZRAunlrL_1aNrjrz-1" value="" style="rounded=0;whiteSpace=wrap;html=1;fillStyle=auto;fillColor=#3399FF;glass=0;shadow=0;labelBorderColor=none;labelBackgroundColor=none;strokeColor=#10739e;sketch=1;curveFitting=1;jiggle=2;" vertex="1" parent="1">
          <mxGeometry x="3" y="20" width="820" height="3484" as="geometry" />
        </mxCell>
        <mxCell id="WuUUsTGlFhz0yOcB5VOo-2" value="&lt;font style=&quot;font-size: 24px;&quot;&gt;start&lt;/font&gt;" style="strokeWidth=2;html=1;shape=mxgraph.flowchart.start_1;whiteSpace=wrap;" parent="1" vertex="1">
          <mxGeometry x="330" y="60" width="100" height="60" as="geometry" />
        </mxCell>
        <mxCell id="WuUUsTGlFhz0yOcB5VOo-4" value="&lt;font style=&quot;font-size: 24px;&quot;&gt;end&lt;/font&gt;" style="strokeWidth=2;html=1;shape=mxgraph.flowchart.terminator;whiteSpace=wrap;" parent="1" vertex="1">
          <mxGeometry x="331" y="2770" width="100" height="60" as="geometry" />
        </mxCell>
        <mxCell id="p4mF64QxMuUCEa_f1IQb-2" value="" style="endArrow=classic;html=1;rounded=0;exitX=0.5;exitY=1;exitDx=0;exitDy=0;exitPerimeter=0;entryX=0.5;entryY=0;entryDx=0;entryDy=0;" parent="1" source="WuUUsTGlFhz0yOcB5VOo-2" target="p4mF64QxMuUCEa_f1IQb-5" edge="1">
          <mxGeometry width="50" height="50" relative="1" as="geometry">
            <mxPoint x="440" y="200" as="sourcePoint" />
            <mxPoint x="380" y="190" as="targetPoint" />
          </mxGeometry>
        </mxCell>
        <mxCell id="p4mF64QxMuUCEa_f1IQb-8" value="" style="edgeStyle=orthogonalEdgeStyle;rounded=0;orthogonalLoop=1;jettySize=auto;html=1;" parent="1" source="p4mF64QxMuUCEa_f1IQb-5" target="p4mF64QxMuUCEa_f1IQb-7" edge="1">
          <mxGeometry relative="1" as="geometry" />
        </mxCell>
        <mxCell id="p4mF64QxMuUCEa_f1IQb-9" value="&lt;font style=&quot;font-size: 20px;&quot;&gt;成功&lt;/font&gt;" style="edgeLabel;html=1;align=center;verticalAlign=middle;resizable=0;points=[];" parent="p4mF64QxMuUCEa_f1IQb-8" vertex="1" connectable="0">
          <mxGeometry x="-0.1895" y="-2" relative="1" as="geometry">
            <mxPoint y="1" as="offset" />
          </mxGeometry>
        </mxCell>
        <mxCell id="p4mF64QxMuUCEa_f1IQb-15" value="" style="edgeStyle=orthogonalEdgeStyle;rounded=0;orthogonalLoop=1;jettySize=auto;html=1;" parent="1" source="p4mF64QxMuUCEa_f1IQb-5" target="p4mF64QxMuUCEa_f1IQb-14" edge="1">
          <mxGeometry relative="1" as="geometry" />
        </mxCell>
        <mxCell id="p4mF64QxMuUCEa_f1IQb-16" value="&lt;font style=&quot;font-size: 20px;&quot;&gt;失败&lt;/font&gt;" style="edgeLabel;html=1;align=center;verticalAlign=middle;resizable=0;points=[];" parent="p4mF64QxMuUCEa_f1IQb-15" vertex="1" connectable="0">
          <mxGeometry x="-0.0897" y="1" relative="1" as="geometry">
            <mxPoint as="offset" />
          </mxGeometry>
        </mxCell>
        <mxCell id="p4mF64QxMuUCEa_f1IQb-5" value="&lt;font style=&quot;font-size: 24px;&quot;&gt;发起TCP连接&lt;/font&gt;" style="rhombus;whiteSpace=wrap;html=1;rounded=1;arcSize=14;strokeWidth=2;" parent="1" vertex="1">
          <mxGeometry x="202.5" y="210" width="355" height="135" as="geometry" />
        </mxCell>
        <mxCell id="g4Wcov2lOADOk6rJduZX-2" value="" style="edgeStyle=orthogonalEdgeStyle;rounded=0;orthogonalLoop=1;jettySize=auto;html=1;" parent="1" source="p4mF64QxMuUCEa_f1IQb-7" target="g4Wcov2lOADOk6rJduZX-1" edge="1">
          <mxGeometry relative="1" as="geometry" />
        </mxCell>
        <mxCell id="p4mF64QxMuUCEa_f1IQb-7" value="&lt;font style=&quot;font-size: 24px;&quot;&gt;构造注册报文&lt;br&gt;&lt;div style=&quot;text-align: left;&quot;&gt;&lt;span style=&quot;background-color: initial;&quot;&gt;{&lt;/span&gt;&lt;/div&gt;&lt;span style=&quot;white-space: pre;&quot;&gt;&lt;div style=&quot;text-align: left;&quot;&gt;&lt;span style=&quot;background-color: initial;&quot;&gt;&#x9;&lt;/span&gt;&lt;span style=&quot;background-color: initial; white-space: normal;&quot;&gt;&quot;topic&quot; : [&quot;DNS_REPORT&quot;, &quot;UPDATED&quot;],&lt;/span&gt;&lt;/div&gt;&lt;div style=&quot;text-align: left;&quot;&gt;&lt;span style=&quot;background-color: initial; white-space: normal;&quot;&gt;&lt;span style=&quot;white-space: pre;&quot;&gt;&#x9;&lt;/span&gt;&quot;ack&quot;: &quot;all&quot;,&lt;br&gt;&lt;/span&gt;&lt;/div&gt;&lt;div style=&quot;text-align: left;&quot;&gt;&lt;span style=&quot;background-color: initial; white-space: normal;&quot;&gt;&lt;span style=&quot;white-space: pre;&quot;&gt;&#x9;&lt;/span&gt;&quot;type&quot;: &quot;CONSUMER&quot;,&lt;br&gt;&lt;/span&gt;&lt;/div&gt;&lt;div style=&quot;text-align: left;&quot;&gt;&lt;span style=&quot;background-color: initial; white-space: normal;&quot;&gt;&lt;span style=&quot;white-space: pre;&quot;&gt;&#x9;&lt;/span&gt;&quot;token&quot;: &quot;zxcvbnmasdfghjkl&quot;&lt;br&gt;&lt;/span&gt;&lt;/div&gt;&lt;/span&gt;&lt;div style=&quot;text-align: left;&quot;&gt;&lt;span style=&quot;background-color: initial;&quot;&gt;}&lt;/span&gt;&lt;/div&gt;&lt;div style=&quot;text-align: left;&quot;&gt;&lt;span style=&quot;background-color: initial;&quot;&gt;&lt;br&gt;&lt;/span&gt;&lt;/div&gt;&lt;/font&gt;" style="whiteSpace=wrap;html=1;rounded=1;arcSize=14;strokeWidth=2;" parent="1" vertex="1">
          <mxGeometry x="75" y="460" width="610" height="330" as="geometry" />
        </mxCell>
        <mxCell id="p4mF64QxMuUCEa_f1IQb-13" value="&lt;font style=&quot;font-size: 24px;&quot;&gt;end&lt;/font&gt;" style="strokeWidth=2;html=1;shape=mxgraph.flowchart.terminator;whiteSpace=wrap;" parent="1" vertex="1">
          <mxGeometry x="1120" y="247.5" width="100" height="60" as="geometry" />
        </mxCell>
        <mxCell id="p4mF64QxMuUCEa_f1IQb-18" value="" style="edgeStyle=orthogonalEdgeStyle;rounded=0;orthogonalLoop=1;jettySize=auto;html=1;entryX=1;entryY=0.5;entryDx=0;entryDy=0;entryPerimeter=0;exitX=0.5;exitY=0;exitDx=0;exitDy=0;" parent="1" source="p4mF64QxMuUCEa_f1IQb-14" target="WuUUsTGlFhz0yOcB5VOo-2" edge="1">
          <mxGeometry relative="1" as="geometry">
            <mxPoint x="745" y="80.005" as="targetPoint" />
            <Array as="points">
              <mxPoint x="820" y="90" />
            </Array>
          </mxGeometry>
        </mxCell>
        <mxCell id="p4mF64QxMuUCEa_f1IQb-19" value="&lt;font style=&quot;font-size: 20px;&quot;&gt;是&lt;/font&gt;" style="edgeLabel;html=1;align=center;verticalAlign=middle;resizable=0;points=[];" parent="p4mF64QxMuUCEa_f1IQb-18" vertex="1" connectable="0">
          <mxGeometry x="-0.1123" y="1" relative="1" as="geometry">
            <mxPoint x="70" y="59" as="offset" />
          </mxGeometry>
        </mxCell>
        <mxCell id="p4mF64QxMuUCEa_f1IQb-21" value="" style="edgeStyle=orthogonalEdgeStyle;rounded=0;orthogonalLoop=1;jettySize=auto;html=1;entryX=0;entryY=0.5;entryDx=0;entryDy=0;entryPerimeter=0;" parent="1" source="p4mF64QxMuUCEa_f1IQb-14" target="p4mF64QxMuUCEa_f1IQb-13" edge="1">
          <mxGeometry relative="1" as="geometry">
            <mxPoint x="995" y="273.0999999999999" as="targetPoint" />
          </mxGeometry>
        </mxCell>
        <mxCell id="p4mF64QxMuUCEa_f1IQb-22" value="&lt;font style=&quot;font-size: 20px;&quot;&gt;否&lt;/font&gt;" style="edgeLabel;html=1;align=center;verticalAlign=middle;resizable=0;points=[];" parent="p4mF64QxMuUCEa_f1IQb-21" vertex="1" connectable="0">
          <mxGeometry x="-0.0636" y="-1" relative="1" as="geometry">
            <mxPoint y="-1" as="offset" />
          </mxGeometry>
        </mxCell>
        <mxCell id="p4mF64QxMuUCEa_f1IQb-14" value="&lt;font style=&quot;font-size: 24px;&quot;&gt;是否重试&lt;/font&gt;" style="rhombus;whiteSpace=wrap;html=1;rounded=1;arcSize=14;strokeWidth=2;" parent="1" vertex="1">
          <mxGeometry x="670" y="212.5" width="300" height="130" as="geometry" />
        </mxCell>
        <mxCell id="g4Wcov2lOADOk6rJduZX-8" value="" style="edgeStyle=orthogonalEdgeStyle;rounded=0;orthogonalLoop=1;jettySize=auto;html=1;" parent="1" source="g4Wcov2lOADOk6rJduZX-1" target="g4Wcov2lOADOk6rJduZX-7" edge="1">
          <mxGeometry relative="1" as="geometry" />
        </mxCell>
        <mxCell id="g4Wcov2lOADOk6rJduZX-9" value="&lt;font style=&quot;font-size: 20px;&quot;&gt;失败&lt;/font&gt;" style="edgeLabel;html=1;align=center;verticalAlign=middle;resizable=0;points=[];" parent="g4Wcov2lOADOk6rJduZX-8" vertex="1" connectable="0">
          <mxGeometry x="-0.4746" y="1" relative="1" as="geometry">
            <mxPoint x="1" as="offset" />
          </mxGeometry>
        </mxCell>
        <mxCell id="g4Wcov2lOADOk6rJduZX-18" value="" style="edgeStyle=orthogonalEdgeStyle;rounded=0;orthogonalLoop=1;jettySize=auto;html=1;" parent="1" source="g4Wcov2lOADOk6rJduZX-1" target="g4Wcov2lOADOk6rJduZX-17" edge="1">
          <mxGeometry relative="1" as="geometry" />
        </mxCell>
        <mxCell id="g4Wcov2lOADOk6rJduZX-19" value="&lt;font style=&quot;&quot;&gt;&lt;font style=&quot;font-size: 20px;&quot;&gt;正常&lt;/font&gt;&lt;br&gt;&lt;/font&gt;" style="edgeLabel;html=1;align=center;verticalAlign=middle;resizable=0;points=[];" parent="g4Wcov2lOADOk6rJduZX-18" vertex="1" connectable="0">
          <mxGeometry x="-0.0431" relative="1" as="geometry">
            <mxPoint as="offset" />
          </mxGeometry>
        </mxCell>
        <mxCell id="g4Wcov2lOADOk6rJduZX-1" value="&lt;font style=&quot;font-size: 24px;&quot;&gt;发送&lt;/font&gt;" style="rhombus;whiteSpace=wrap;html=1;rounded=1;arcSize=14;strokeWidth=2;" parent="1" vertex="1">
          <mxGeometry x="242.5" y="1010" width="275" height="140" as="geometry" />
        </mxCell>
        <mxCell id="g4Wcov2lOADOk6rJduZX-11" value="" style="edgeStyle=orthogonalEdgeStyle;rounded=0;orthogonalLoop=1;jettySize=auto;html=1;entryX=-0.001;entryY=0.459;entryDx=0;entryDy=0;entryPerimeter=0;" parent="1" source="g4Wcov2lOADOk6rJduZX-7" target="p4mF64QxMuUCEa_f1IQb-7" edge="1">
          <mxGeometry relative="1" as="geometry">
            <mxPoint x="-87.5" y="610.0000000000002" as="targetPoint" />
          </mxGeometry>
        </mxCell>
        <mxCell id="g4Wcov2lOADOk6rJduZX-12" value="&lt;font style=&quot;font-size: 20px;&quot;&gt;正常&lt;/font&gt;" style="edgeLabel;html=1;align=center;verticalAlign=middle;resizable=0;points=[];" parent="g4Wcov2lOADOk6rJduZX-11" vertex="1" connectable="0">
          <mxGeometry x="0.0697" y="-8" relative="1" as="geometry">
            <mxPoint as="offset" />
          </mxGeometry>
        </mxCell>
        <mxCell id="g4Wcov2lOADOk6rJduZX-14" value="" style="edgeStyle=orthogonalEdgeStyle;rounded=0;orthogonalLoop=1;jettySize=auto;html=1;entryX=0;entryY=0.5;entryDx=0;entryDy=0;" parent="1" source="g4Wcov2lOADOk6rJduZX-7" target="p4mF64QxMuUCEa_f1IQb-5" edge="1">
          <mxGeometry relative="1" as="geometry">
            <mxPoint x="-402.5" y="460.0000000000002" as="targetPoint" />
            <Array as="points">
              <mxPoint x="-400" y="278" />
            </Array>
          </mxGeometry>
        </mxCell>
        <mxCell id="g4Wcov2lOADOk6rJduZX-16" value="&lt;font style=&quot;font-size: 20px;&quot;&gt;不正常&lt;/font&gt;" style="edgeLabel;html=1;align=center;verticalAlign=middle;resizable=0;points=[];" parent="g4Wcov2lOADOk6rJduZX-14" vertex="1" connectable="0">
          <mxGeometry x="-0.7125" y="-3" relative="1" as="geometry">
            <mxPoint as="offset" />
          </mxGeometry>
        </mxCell>
        <mxCell id="g4Wcov2lOADOk6rJduZX-7" value="&lt;font style=&quot;font-size: 24px;&quot;&gt;连接是否正常&lt;/font&gt;" style="rhombus;whiteSpace=wrap;html=1;rounded=1;arcSize=14;strokeWidth=2;" parent="1" vertex="1">
          <mxGeometry x="-540" y="540" width="275" height="140" as="geometry" />
        </mxCell>
        <mxCell id="g4Wcov2lOADOk6rJduZX-21" value="" style="edgeStyle=orthogonalEdgeStyle;rounded=0;orthogonalLoop=1;jettySize=auto;html=1;" parent="1" source="g4Wcov2lOADOk6rJduZX-17" target="g4Wcov2lOADOk6rJduZX-20" edge="1">
          <mxGeometry relative="1" as="geometry" />
        </mxCell>
        <mxCell id="g4Wcov2lOADOk6rJduZX-17" value="&lt;font style=&quot;font-size: 24px;&quot;&gt;等待服务端注册响应&lt;/font&gt;" style="whiteSpace=wrap;html=1;rounded=1;arcSize=14;strokeWidth=2;" parent="1" vertex="1">
          <mxGeometry x="85" y="1320" width="590" height="210" as="geometry" />
        </mxCell>
        <mxCell id="g4Wcov2lOADOk6rJduZX-23" value="" style="edgeStyle=orthogonalEdgeStyle;rounded=0;orthogonalLoop=1;jettySize=auto;html=1;entryX=1;entryY=0.5;entryDx=0;entryDy=0;" parent="1" source="g4Wcov2lOADOk6rJduZX-20" target="g4Wcov2lOADOk6rJduZX-1" edge="1">
          <mxGeometry relative="1" as="geometry">
            <mxPoint x="860" y="1797.5" as="targetPoint" />
            <Array as="points">
              <mxPoint x="1010" y="1798" />
              <mxPoint x="1010" y="1080" />
            </Array>
          </mxGeometry>
        </mxCell>
        <mxCell id="g4Wcov2lOADOk6rJduZX-24" value="&lt;font style=&quot;font-size: 20px;&quot;&gt;是&lt;/font&gt;" style="edgeLabel;html=1;align=center;verticalAlign=middle;resizable=0;points=[];" parent="g4Wcov2lOADOk6rJduZX-23" vertex="1" connectable="0">
          <mxGeometry x="-0.7833" y="-5" relative="1" as="geometry">
            <mxPoint x="1" as="offset" />
          </mxGeometry>
        </mxCell>
        <mxCell id="g4Wcov2lOADOk6rJduZX-26" value="" style="edgeStyle=orthogonalEdgeStyle;rounded=0;orthogonalLoop=1;jettySize=auto;html=1;" parent="1" source="g4Wcov2lOADOk6rJduZX-20" target="g4Wcov2lOADOk6rJduZX-25" edge="1">
          <mxGeometry relative="1" as="geometry" />
        </mxCell>
        <mxCell id="g4Wcov2lOADOk6rJduZX-27" value="&lt;font style=&quot;font-size: 20px;&quot;&gt;否&lt;/font&gt;" style="edgeLabel;html=1;align=center;verticalAlign=middle;resizable=0;points=[];" parent="g4Wcov2lOADOk6rJduZX-26" vertex="1" connectable="0">
          <mxGeometry x="0.339" y="-1" relative="1" as="geometry">
            <mxPoint x="1" y="-52" as="offset" />
          </mxGeometry>
        </mxCell>
        <mxCell id="g4Wcov2lOADOk6rJduZX-20" value="&lt;font style=&quot;font-size: 24px;&quot;&gt;等待超时&lt;/font&gt;" style="rhombus;whiteSpace=wrap;html=1;rounded=1;arcSize=14;strokeWidth=2;" parent="1" vertex="1">
          <mxGeometry x="160" y="1700" width="440" height="195" as="geometry" />
        </mxCell>
        <mxCell id="g4Wcov2lOADOk6rJduZX-29" value="" style="edgeStyle=orthogonalEdgeStyle;rounded=0;orthogonalLoop=1;jettySize=auto;html=1;" parent="1" source="g4Wcov2lOADOk6rJduZX-25" target="g4Wcov2lOADOk6rJduZX-28" edge="1">
          <mxGeometry relative="1" as="geometry" />
        </mxCell>
        <mxCell id="g4Wcov2lOADOk6rJduZX-25" value="&lt;div style=&quot;&quot;&gt;&lt;span style=&quot;font-size: 24px; background-color: initial;&quot;&gt;处理注册响应&lt;/span&gt;&lt;/div&gt;&lt;font style=&quot;&quot;&gt;&lt;div style=&quot;font-size: 24px; text-align: left;&quot;&gt;&lt;span style=&quot;background-color: initial;&quot;&gt;{&lt;/span&gt;&lt;/div&gt;&lt;div style=&quot;font-size: 24px; text-align: left;&quot;&gt;&lt;span style=&quot;background-color: initial;&quot;&gt;&lt;span style=&quot;&quot;&gt;&lt;span style=&quot;white-space: pre;&quot;&gt;&amp;nbsp;&amp;nbsp;&amp;nbsp;&amp;nbsp;&lt;span style=&quot;white-space: pre;&quot;&gt;&#x9;&lt;/span&gt;&lt;/span&gt;&lt;/span&gt;&quot;status&quot;: &quot;0&quot;,&lt;br&gt;&lt;/span&gt;&lt;/div&gt;&lt;div style=&quot;font-size: 24px; text-align: left;&quot;&gt;&lt;span style=&quot;background-color: initial;&quot;&gt;&lt;span style=&quot;&quot;&gt;&lt;span style=&quot;white-space: pre;&quot;&gt;&amp;nbsp;&amp;nbsp;&amp;nbsp;&amp;nbsp;&lt;span style=&quot;white-space: pre;&quot;&gt;&#x9;&lt;/span&gt;&lt;/span&gt;&lt;/span&gt;&quot;offset&quot;: 0,&lt;br&gt;&lt;/span&gt;&lt;/div&gt;&lt;div style=&quot;font-size: 24px; text-align: left;&quot;&gt;&lt;span style=&quot;white-space: pre;&quot;&gt;&#x9;&lt;/span&gt;&quot;receive_time&quot;:&amp;nbsp;&lt;span style=&quot;background-color: initial;&quot;&gt;&quot;2023-08-06T18:10:35&quot;,&lt;/span&gt;&lt;/div&gt;&lt;div style=&quot;font-size: 24px; text-align: left;&quot;&gt;&lt;span style=&quot;background-color: initial;&quot;&gt;&lt;span style=&quot;white-space: pre;&quot;&gt;&#x9;&lt;/span&gt;&quot;ticker_duration&quot;: 0,&lt;br&gt;&lt;/span&gt;&lt;/div&gt;&lt;div style=&quot;text-align: left; font-size: 24px;&quot;&gt;&lt;span style=&quot;background-color: initial;&quot;&gt;}&lt;/span&gt;&lt;/div&gt;&lt;/font&gt;" style="whiteSpace=wrap;html=1;rounded=1;arcSize=14;strokeWidth=2;align=center;" parent="1" vertex="1">
          <mxGeometry x="96" y="2050" width="570" height="300" as="geometry" />
        </mxCell>
        <mxCell id="g4Wcov2lOADOk6rJduZX-33" value="" style="edgeStyle=orthogonalEdgeStyle;rounded=0;orthogonalLoop=1;jettySize=auto;html=1;fontFamily=Helvetica;fontSize=12;fontColor=default;" parent="1" source="g4Wcov2lOADOk6rJduZX-28" target="WuUUsTGlFhz0yOcB5VOo-4" edge="1">
          <mxGeometry relative="1" as="geometry" />
        </mxCell>
        <mxCell id="g4Wcov2lOADOk6rJduZX-34" value="&lt;font style=&quot;font-size: 20px;&quot;&gt;是&lt;/font&gt;" style="edgeLabel;html=1;align=center;verticalAlign=middle;resizable=0;points=[];fontSize=12;fontFamily=Helvetica;fontColor=default;" parent="g4Wcov2lOADOk6rJduZX-33" vertex="1" connectable="0">
          <mxGeometry x="0.0483" y="2" relative="1" as="geometry">
            <mxPoint as="offset" />
          </mxGeometry>
        </mxCell>
        <mxCell id="g4Wcov2lOADOk6rJduZX-38" value="" style="edgeStyle=orthogonalEdgeStyle;rounded=0;orthogonalLoop=1;jettySize=auto;html=1;fontFamily=Helvetica;fontSize=12;fontColor=default;" parent="1" source="g4Wcov2lOADOk6rJduZX-28" target="g4Wcov2lOADOk6rJduZX-37" edge="1">
          <mxGeometry relative="1" as="geometry" />
        </mxCell>
        <mxCell id="g4Wcov2lOADOk6rJduZX-39" value="&lt;font style=&quot;font-size: 20px;&quot;&gt;否&lt;/font&gt;" style="edgeLabel;html=1;align=center;verticalAlign=middle;resizable=0;points=[];fontSize=12;fontFamily=Helvetica;fontColor=default;" parent="g4Wcov2lOADOk6rJduZX-38" vertex="1" connectable="0">
          <mxGeometry x="-0.0862" y="-1" relative="1" as="geometry">
            <mxPoint as="offset" />
          </mxGeometry>
        </mxCell>
        <mxCell id="g4Wcov2lOADOk6rJduZX-28" value="&lt;font style=&quot;font-size: 24px;&quot;&gt;status == &quot;0&quot;&lt;/font&gt;" style="rhombus;whiteSpace=wrap;html=1;rounded=1;arcSize=14;strokeWidth=2;" parent="1" vertex="1">
          <mxGeometry x="190.5" y="2450" width="381" height="180" as="geometry" />
        </mxCell>
        <mxCell id="g4Wcov2lOADOk6rJduZX-30" value="&lt;font style=&quot;font-size: 24px;&quot;&gt;消费者注册&lt;/font&gt;" style="strokeWidth=2;html=1;shape=mxgraph.flowchart.annotation_2;align=left;labelPosition=right;pointerEvents=1;" parent="1" vertex="1">
          <mxGeometry x="685" y="590" width="50" height="100" as="geometry" />
        </mxCell>
        <mxCell id="g4Wcov2lOADOk6rJduZX-31" value="&lt;font style=&quot;font-size: 24px;&quot;&gt;消费者响应仅需处理 status 字段即可&lt;/font&gt;" style="strokeWidth=2;html=1;shape=mxgraph.flowchart.annotation_2;align=left;labelPosition=right;pointerEvents=1;" parent="1" vertex="1">
          <mxGeometry x="666" y="2150" width="50" height="100" as="geometry" />
        </mxCell>
        <mxCell id="g4Wcov2lOADOk6rJduZX-41" value="" style="edgeStyle=orthogonalEdgeStyle;rounded=0;orthogonalLoop=1;jettySize=auto;html=1;fontFamily=Helvetica;fontSize=12;fontColor=default;entryX=0;entryY=0.5;entryDx=0;entryDy=0;entryPerimeter=0;exitX=0.5;exitY=1;exitDx=0;exitDy=0;" parent="1" source="g4Wcov2lOADOk6rJduZX-37" target="WuUUsTGlFhz0yOcB5VOo-4" edge="1">
          <mxGeometry relative="1" as="geometry">
            <mxPoint x="-199.49999999999977" y="2710" as="targetPoint" />
            <Array as="points">
              <mxPoint x="-299" y="2800" />
            </Array>
          </mxGeometry>
        </mxCell>
        <mxCell id="g4Wcov2lOADOk6rJduZX-42" value="&lt;font style=&quot;font-size: 20px;&quot;&gt;是&lt;/font&gt;" style="edgeLabel;html=1;align=center;verticalAlign=middle;resizable=0;points=[];fontSize=12;fontFamily=Helvetica;fontColor=default;" parent="g4Wcov2lOADOk6rJduZX-41" vertex="1" connectable="0">
          <mxGeometry x="0.0098" y="-1" relative="1" as="geometry">
            <mxPoint as="offset" />
          </mxGeometry>
        </mxCell>
        <mxCell id="g4Wcov2lOADOk6rJduZX-44" value="" style="edgeStyle=orthogonalEdgeStyle;rounded=0;orthogonalLoop=1;jettySize=auto;html=1;fontFamily=Helvetica;fontSize=12;fontColor=default;" parent="1" source="g4Wcov2lOADOk6rJduZX-37" target="g4Wcov2lOADOk6rJduZX-43" edge="1">
          <mxGeometry relative="1" as="geometry" />
        </mxCell>
        <mxCell id="g4Wcov2lOADOk6rJduZX-45" value="&lt;font style=&quot;font-size: 24px;&quot;&gt;是&lt;/font&gt;" style="edgeLabel;html=1;align=center;verticalAlign=middle;resizable=0;points=[];fontSize=12;fontFamily=Helvetica;fontColor=default;" parent="g4Wcov2lOADOk6rJduZX-44" vertex="1" connectable="0">
          <mxGeometry x="-0.2196" y="4" relative="1" as="geometry">
            <mxPoint as="offset" />
          </mxGeometry>
        </mxCell>
        <mxCell id="0e7gZRAunlrL_1aNrjrz-6" value="" style="edgeStyle=orthogonalEdgeStyle;rounded=0;orthogonalLoop=1;jettySize=auto;html=1;" edge="1" parent="1" source="g4Wcov2lOADOk6rJduZX-37" target="0e7gZRAunlrL_1aNrjrz-5">
          <mxGeometry relative="1" as="geometry" />
        </mxCell>
        <mxCell id="0e7gZRAunlrL_1aNrjrz-7" value="&lt;font style=&quot;font-size: 24px;&quot;&gt;否&lt;/font&gt;" style="edgeLabel;html=1;align=center;verticalAlign=middle;resizable=0;points=[];" vertex="1" connectable="0" parent="0e7gZRAunlrL_1aNrjrz-6">
          <mxGeometry x="0.2293" y="-2" relative="1" as="geometry">
            <mxPoint as="offset" />
          </mxGeometry>
        </mxCell>
        <mxCell id="g4Wcov2lOADOk6rJduZX-37" value="&lt;font style=&quot;font-size: 24px;&quot;&gt;status == &quot;1&quot;&lt;/font&gt;" style="rhombus;whiteSpace=wrap;html=1;rounded=1;arcSize=14;strokeWidth=2;" parent="1" vertex="1">
          <mxGeometry x="-490" y="2450" width="381" height="180" as="geometry" />
        </mxCell>
        <mxCell id="g4Wcov2lOADOk6rJduZX-43" value="&lt;p style=&quot;line-height: 280%;&quot;&gt;&lt;font style=&quot;font-size: 24px;&quot;&gt;（异步）&lt;br&gt;等待服务器进一步命令&lt;br&gt;[ 要求重新注册/ ]&lt;br&gt;&lt;/font&gt;&lt;/p&gt;" style="whiteSpace=wrap;html=1;rounded=1;arcSize=14;strokeWidth=2;" parent="1" vertex="1">
          <mxGeometry x="-1300" y="2365" width="560" height="350" as="geometry" />
        </mxCell>
        <mxCell id="0e7gZRAunlrL_1aNrjrz-2" value="&lt;font style=&quot;font-size: 52px;&quot;&gt;正常的注册流程&lt;/font&gt;" style="text;html=1;strokeColor=none;fillColor=none;align=center;verticalAlign=middle;whiteSpace=wrap;rounded=0;" vertex="1" parent="1">
          <mxGeometry x="171" y="3230" width="420" height="150" as="geometry" />
        </mxCell>
        <mxCell id="0e7gZRAunlrL_1aNrjrz-4" value="&lt;h1&gt;&lt;font style=&quot;font-size: 26px;&quot;&gt;默认的SDK实现&lt;/font&gt;&lt;/h1&gt;&lt;p&gt;&lt;font style=&quot;font-size: 22px;&quot;&gt;1. 其中正常的注册流程是所有SDK实现中相同的都部分&lt;/font&gt;&lt;/p&gt;&lt;p&gt;&lt;font style=&quot;font-size: 22px;&quot;&gt;2. 关于错误异常的处理可能有所不同&lt;/font&gt;&lt;/p&gt;" style="text;html=1;strokeColor=none;fillColor=none;spacing=5;spacingTop=-20;whiteSpace=wrap;overflow=hidden;rounded=0;" vertex="1" parent="1">
          <mxGeometry x="-1570" y="70" width="630" height="180" as="geometry" />
        </mxCell>
        <mxCell id="0e7gZRAunlrL_1aNrjrz-9" value="" style="edgeStyle=orthogonalEdgeStyle;rounded=0;orthogonalLoop=1;jettySize=auto;html=1;" edge="1" parent="1" source="0e7gZRAunlrL_1aNrjrz-5" target="0e7gZRAunlrL_1aNrjrz-8">
          <mxGeometry relative="1" as="geometry" />
        </mxCell>
        <mxCell id="0e7gZRAunlrL_1aNrjrz-10" value="&lt;font style=&quot;font-size: 24px;&quot;&gt;是&lt;/font&gt;" style="edgeLabel;html=1;align=center;verticalAlign=middle;resizable=0;points=[];" vertex="1" connectable="0" parent="0e7gZRAunlrL_1aNrjrz-9">
          <mxGeometry x="0.0672" y="1" relative="1" as="geometry">
            <mxPoint y="-1" as="offset" />
          </mxGeometry>
        </mxCell>
        <mxCell id="0e7gZRAunlrL_1aNrjrz-5" value="&lt;font style=&quot;font-size: 24px;&quot;&gt;status == &quot;10&quot;&lt;/font&gt;" style="rhombus;whiteSpace=wrap;html=1;rounded=1;arcSize=14;strokeWidth=2;" vertex="1" parent="1">
          <mxGeometry x="-490" y="2100" width="381" height="180" as="geometry" />
        </mxCell>
        <mxCell id="0e7gZRAunlrL_1aNrjrz-8" value="" style="shape=waypoint;sketch=0;size=6;pointerEvents=1;points=[];fillColor=default;resizable=0;rotatable=0;perimeter=centerPerimeter;snapToPoint=1;rounded=1;arcSize=14;strokeWidth=2;" vertex="1" parent="1">
          <mxGeometry x="-309.5" y="1920" width="20" height="20" as="geometry" />
        </mxCell>
        <mxCell id="0e7gZRAunlrL_1aNrjrz-11" value="&lt;font style=&quot;font-size: 24px;&quot;&gt;end&lt;/font&gt;" style="strokeWidth=2;html=1;shape=mxgraph.flowchart.terminator;whiteSpace=wrap;" vertex="1" parent="1">
          <mxGeometry x="-349.5" y="1870" width="100" height="60" as="geometry" />
        </mxCell>
      </root>
    </mxGraphModel>
  </diagram>
  <diagram id="A_iXqG0Hpvlu0hcf8FSz" name="生产者">
    <mxGraphModel dx="1242" dy="2016" grid="1" gridSize="10" guides="1" tooltips="1" connect="1" arrows="1" fold="1" page="1" pageScale="1" pageWidth="827" pageHeight="1169" math="0" shadow="0">
      <root>
        <mxCell id="0" />
        <mxCell id="1" parent="0" />
        <mxCell id="jEgTqVKUGzqyQiMNCO3P-7" value="" style="edgeStyle=orthogonalEdgeStyle;rounded=0;orthogonalLoop=1;jettySize=auto;html=1;fontFamily=Helvetica;fontSize=12;fontColor=default;" parent="1" source="sJ5maRuWEX489fQD6JMl-1" target="jEgTqVKUGzqyQiMNCO3P-6" edge="1">
          <mxGeometry relative="1" as="geometry" />
        </mxCell>
        <mxCell id="sJ5maRuWEX489fQD6JMl-1" value="&lt;font style=&quot;font-size: 24px;&quot;&gt;注册成功&lt;/font&gt;" style="strokeWidth=2;html=1;shape=mxgraph.flowchart.start_1;whiteSpace=wrap;rounded=1;strokeColor=default;fontFamily=Helvetica;fontSize=12;fontColor=default;fillColor=default;" parent="1" vertex="1">
          <mxGeometry x="310" y="50" width="240" height="80" as="geometry" />
        </mxCell>
        <mxCell id="jEgTqVKUGzqyQiMNCO3P-5" value="" style="edgeStyle=orthogonalEdgeStyle;rounded=0;orthogonalLoop=1;jettySize=auto;html=1;fontFamily=Helvetica;fontSize=12;fontColor=default;" parent="1" source="jEgTqVKUGzqyQiMNCO3P-2" target="sJ5maRuWEX489fQD6JMl-1" edge="1">
          <mxGeometry relative="1" as="geometry" />
        </mxCell>
        <mxCell id="jEgTqVKUGzqyQiMNCO3P-2" value="&lt;div style=&quot;&quot;&gt;&lt;span style=&quot;font-size: 24px; background-color: initial;&quot;&gt;处理注册响应&lt;/span&gt;&lt;/div&gt;&lt;font style=&quot;&quot;&gt;&lt;div style=&quot;font-size: 24px; text-align: left;&quot;&gt;&lt;span style=&quot;background-color: initial;&quot;&gt;{&lt;/span&gt;&lt;/div&gt;&lt;div style=&quot;font-size: 24px; text-align: left;&quot;&gt;&lt;span style=&quot;background-color: initial;&quot;&gt;&lt;span style=&quot;&quot;&gt;&lt;span style=&quot;white-space: pre;&quot;&gt;&amp;nbsp;&amp;nbsp;&amp;nbsp;&amp;nbsp;&lt;span style=&quot;white-space: pre;&quot;&gt;&#x9;&lt;/span&gt;&lt;/span&gt;&lt;/span&gt;&quot;status&quot;: &quot;0&quot;,&lt;br&gt;&lt;/span&gt;&lt;/div&gt;&lt;div style=&quot;font-size: 24px; text-align: left;&quot;&gt;&lt;span style=&quot;background-color: initial;&quot;&gt;&lt;span style=&quot;&quot;&gt;&lt;span style=&quot;white-space: pre;&quot;&gt;&amp;nbsp;&amp;nbsp;&amp;nbsp;&amp;nbsp;&lt;span style=&quot;white-space: pre;&quot;&gt;&#x9;&lt;/span&gt;&lt;/span&gt;&lt;/span&gt;&quot;offset&quot;: 0,&lt;br&gt;&lt;/span&gt;&lt;/div&gt;&lt;div style=&quot;font-size: 24px; text-align: left;&quot;&gt;&lt;span style=&quot;white-space: pre;&quot;&gt;&#x9;&lt;/span&gt;&quot;receive_time&quot;:&amp;nbsp;&lt;span style=&quot;background-color: initial;&quot;&gt;&quot;2023-08-06T18:10:35&quot;,&lt;/span&gt;&lt;/div&gt;&lt;div style=&quot;font-size: 24px; text-align: left;&quot;&gt;&lt;span style=&quot;background-color: initial;&quot;&gt;&lt;span style=&quot;white-space: pre;&quot;&gt;&#x9;&lt;/span&gt;&quot;ticker_duration&quot;: 200,&lt;br&gt;&lt;/span&gt;&lt;/div&gt;&lt;div style=&quot;text-align: left; font-size: 24px;&quot;&gt;&lt;span style=&quot;background-color: initial;&quot;&gt;}&lt;/span&gt;&lt;/div&gt;&lt;/font&gt;" style="whiteSpace=wrap;html=1;rounded=1;arcSize=14;strokeWidth=2;align=center;" parent="1" vertex="1">
          <mxGeometry x="145" y="-340" width="570" height="300" as="geometry" />
        </mxCell>
        <mxCell id="hxisfU9j-tTTfckc3Lx8-2" value="" style="edgeStyle=orthogonalEdgeStyle;rounded=0;orthogonalLoop=1;jettySize=auto;html=1;fontFamily=Helvetica;fontSize=12;fontColor=default;" parent="1" source="jEgTqVKUGzqyQiMNCO3P-6" target="hxisfU9j-tTTfckc3Lx8-1" edge="1">
          <mxGeometry relative="1" as="geometry" />
        </mxCell>
        <mxCell id="jEgTqVKUGzqyQiMNCO3P-6" value="&lt;font style=&quot;font-size: 24px;&quot;&gt;创建定时器&lt;br&gt;以200ms的间隔向服务器发送PMessage消息&lt;br&gt;&lt;br&gt;并异步处理来自服务器的MessageResponse&lt;br&gt;&lt;/font&gt;" style="rounded=1;whiteSpace=wrap;html=1;strokeWidth=2;" parent="1" vertex="1">
          <mxGeometry x="270" y="220" width="320" height="190" as="geometry" />
        </mxCell>
        <mxCell id="hxisfU9j-tTTfckc3Lx8-4" value="" style="edgeStyle=orthogonalEdgeStyle;rounded=0;orthogonalLoop=1;jettySize=auto;html=1;fontFamily=Helvetica;fontSize=12;fontColor=default;" parent="1" source="hxisfU9j-tTTfckc3Lx8-1" target="hxisfU9j-tTTfckc3Lx8-3" edge="1">
          <mxGeometry relative="1" as="geometry" />
        </mxCell>
        <mxCell id="hxisfU9j-tTTfckc3Lx8-5" value="&lt;font style=&quot;font-size: 20px;&quot;&gt;重连并重新注册&lt;/font&gt;" style="edgeLabel;html=1;align=center;verticalAlign=middle;resizable=0;points=[];fontSize=12;fontFamily=Helvetica;fontColor=default;" parent="hxisfU9j-tTTfckc3Lx8-4" vertex="1" connectable="0">
          <mxGeometry x="0.0128" y="-2" relative="1" as="geometry">
            <mxPoint as="offset" />
          </mxGeometry>
        </mxCell>
        <mxCell id="hxisfU9j-tTTfckc3Lx8-1" value="&lt;font style=&quot;font-size: 24px;&quot;&gt;连接断开&lt;/font&gt;" style="rhombus;whiteSpace=wrap;html=1;rounded=1;strokeWidth=2;" parent="1" vertex="1">
          <mxGeometry x="715" y="252.5" width="310" height="125" as="geometry" />
        </mxCell>
        <mxCell id="hxisfU9j-tTTfckc3Lx8-3" value="" style="shape=waypoint;sketch=0;size=6;pointerEvents=1;points=[];fillColor=default;resizable=0;rotatable=0;perimeter=centerPerimeter;snapToPoint=1;rounded=1;strokeWidth=2;" parent="1" vertex="1">
          <mxGeometry x="1250" y="305" width="20" height="20" as="geometry" />
        </mxCell>
      </root>
    </mxGraphModel>
  </diagram>
  <diagram id="DXFwqOYWfCs1Br8PVMt3" name="消费者">
    <mxGraphModel dx="2258" dy="2709" grid="1" gridSize="10" guides="1" tooltips="1" connect="1" arrows="1" fold="1" page="1" pageScale="1" pageWidth="827" pageHeight="1169" math="0" shadow="0">
      <root>
        <mxCell id="0" />
        <mxCell id="1" parent="0" />
        <mxCell id="SCN-cLzCl_Im2Pr3yD9G-1" value="" style="edgeStyle=orthogonalEdgeStyle;rounded=0;orthogonalLoop=1;jettySize=auto;html=1;fontFamily=Helvetica;fontSize=12;fontColor=default;" parent="1" source="SCN-cLzCl_Im2Pr3yD9G-2" target="SCN-cLzCl_Im2Pr3yD9G-6" edge="1">
          <mxGeometry relative="1" as="geometry" />
        </mxCell>
        <mxCell id="SCN-cLzCl_Im2Pr3yD9G-2" value="&lt;font style=&quot;font-size: 24px;&quot;&gt;注册成功&lt;/font&gt;" style="strokeWidth=2;html=1;shape=mxgraph.flowchart.start_1;whiteSpace=wrap;rounded=1;strokeColor=default;fontFamily=Helvetica;fontSize=12;fontColor=default;fillColor=default;" parent="1" vertex="1">
          <mxGeometry x="295" y="-600" width="240" height="80" as="geometry" />
        </mxCell>
        <mxCell id="SCN-cLzCl_Im2Pr3yD9G-3" value="&lt;div style=&quot;&quot;&gt;&lt;span style=&quot;font-size: 24px; background-color: initial;&quot;&gt;处理注册响应&lt;/span&gt;&lt;/div&gt;&lt;font style=&quot;&quot;&gt;&lt;div style=&quot;font-size: 24px; text-align: left;&quot;&gt;&lt;span style=&quot;background-color: initial;&quot;&gt;{&lt;/span&gt;&lt;/div&gt;&lt;div style=&quot;font-size: 24px; text-align: left;&quot;&gt;&lt;span style=&quot;background-color: initial;&quot;&gt;&lt;span style=&quot;&quot;&gt;&lt;span style=&quot;white-space: pre;&quot;&gt;&amp;nbsp;&amp;nbsp;&amp;nbsp;&amp;nbsp;&lt;span style=&quot;white-space: pre;&quot;&gt;&#x9;&lt;/span&gt;&lt;/span&gt;&lt;/span&gt;&quot;status&quot;: &quot;0&quot;,&lt;br&gt;&lt;/span&gt;&lt;/div&gt;&lt;div style=&quot;font-size: 24px; text-align: left;&quot;&gt;&lt;span style=&quot;background-color: initial;&quot;&gt;&lt;span style=&quot;&quot;&gt;&lt;span style=&quot;white-space: pre;&quot;&gt;&amp;nbsp;&amp;nbsp;&amp;nbsp;&amp;nbsp;&lt;span style=&quot;white-space: pre;&quot;&gt;&#x9;&lt;/span&gt;&lt;/span&gt;&lt;/span&gt;&quot;offset&quot;: 0,&lt;br&gt;&lt;/span&gt;&lt;/div&gt;&lt;div style=&quot;font-size: 24px; text-align: left;&quot;&gt;&lt;span style=&quot;white-space: pre;&quot;&gt;&#x9;&lt;/span&gt;&quot;receive_time&quot;:&amp;nbsp;&lt;span style=&quot;background-color: initial;&quot;&gt;&quot;2023-08-06T18:10:35&quot;,&lt;/span&gt;&lt;/div&gt;&lt;div style=&quot;font-size: 24px; text-align: left;&quot;&gt;&lt;span style=&quot;background-color: initial;&quot;&gt;&lt;span style=&quot;white-space: pre;&quot;&gt;&#x9;&lt;/span&gt;&quot;ticker_duration&quot;: 0,&lt;br&gt;&lt;/span&gt;&lt;/div&gt;&lt;div style=&quot;text-align: left; font-size: 24px;&quot;&gt;&lt;span style=&quot;background-color: initial;&quot;&gt;}&lt;/span&gt;&lt;/div&gt;&lt;/font&gt;" style="whiteSpace=wrap;html=1;rounded=1;arcSize=14;strokeWidth=2;align=center;" parent="1" vertex="1">
          <mxGeometry x="110" y="1610" width="570" height="300" as="geometry" />
        </mxCell>
        <mxCell id="SCN-cLzCl_Im2Pr3yD9G-4" value="" style="edgeStyle=orthogonalEdgeStyle;rounded=0;orthogonalLoop=1;jettySize=auto;html=1;fontFamily=Helvetica;fontSize=12;fontColor=default;" parent="1" source="SCN-cLzCl_Im2Pr3yD9G-5" target="SCN-cLzCl_Im2Pr3yD9G-2" edge="1">
          <mxGeometry relative="1" as="geometry" />
        </mxCell>
        <mxCell id="SCN-cLzCl_Im2Pr3yD9G-5" value="&lt;div style=&quot;&quot;&gt;&lt;span style=&quot;font-size: 24px; background-color: initial;&quot;&gt;处理注册响应&lt;/span&gt;&lt;/div&gt;&lt;font style=&quot;&quot;&gt;&lt;div style=&quot;font-size: 24px; text-align: left;&quot;&gt;&lt;span style=&quot;background-color: initial;&quot;&gt;{&lt;/span&gt;&lt;/div&gt;&lt;div style=&quot;font-size: 24px; text-align: left;&quot;&gt;&lt;span style=&quot;background-color: initial;&quot;&gt;&lt;span style=&quot;&quot;&gt;&lt;span style=&quot;white-space: pre;&quot;&gt;&amp;nbsp;&amp;nbsp;&amp;nbsp;&amp;nbsp;&lt;span style=&quot;white-space: pre;&quot;&gt;&#x9;&lt;/span&gt;&lt;/span&gt;&lt;/span&gt;&quot;status&quot;: &quot;0&quot;,&lt;br&gt;&lt;/span&gt;&lt;/div&gt;&lt;div style=&quot;font-size: 24px; text-align: left;&quot;&gt;&lt;span style=&quot;background-color: initial;&quot;&gt;&lt;span style=&quot;&quot;&gt;&lt;span style=&quot;white-space: pre;&quot;&gt;&amp;nbsp;&amp;nbsp;&amp;nbsp;&amp;nbsp;&lt;span style=&quot;white-space: pre;&quot;&gt;&#x9;&lt;/span&gt;&lt;/span&gt;&lt;/span&gt;&quot;offset&quot;: 0,&lt;br&gt;&lt;/span&gt;&lt;/div&gt;&lt;div style=&quot;font-size: 24px; text-align: left;&quot;&gt;&lt;span style=&quot;white-space: pre;&quot;&gt;&#x9;&lt;/span&gt;&quot;receive_time&quot;:&amp;nbsp;&lt;span style=&quot;background-color: initial;&quot;&gt;&quot;2023-08-06T18:10:35&quot;,&lt;/span&gt;&lt;/div&gt;&lt;div style=&quot;font-size: 24px; text-align: left;&quot;&gt;&lt;span style=&quot;background-color: initial;&quot;&gt;&lt;span style=&quot;white-space: pre;&quot;&gt;&#x9;&lt;/span&gt;&quot;ticker_duration&quot;: 0,&lt;br&gt;&lt;/span&gt;&lt;/div&gt;&lt;div style=&quot;text-align: left; font-size: 24px;&quot;&gt;&lt;span style=&quot;background-color: initial;&quot;&gt;}&lt;/span&gt;&lt;/div&gt;&lt;/font&gt;" style="whiteSpace=wrap;html=1;rounded=1;arcSize=14;strokeWidth=2;align=center;" parent="1" vertex="1">
          <mxGeometry x="130" y="-990" width="570" height="300" as="geometry" />
        </mxCell>
        <mxCell id="Z0OjpiHxo7PmqM8XsX5b-2" value="" style="edgeStyle=orthogonalEdgeStyle;rounded=0;orthogonalLoop=1;jettySize=auto;html=1;fontFamily=Helvetica;fontSize=12;fontColor=default;" parent="1" source="SCN-cLzCl_Im2Pr3yD9G-6" target="Z0OjpiHxo7PmqM8XsX5b-1" edge="1">
          <mxGeometry relative="1" as="geometry" />
        </mxCell>
        <mxCell id="SCN-cLzCl_Im2Pr3yD9G-6" value="&lt;font style=&quot;font-size: 24px;&quot;&gt;异步处理来自服务器的CMessage&lt;br&gt;以及其他MessageResponse&lt;br&gt;&lt;/font&gt;" style="rounded=1;whiteSpace=wrap;html=1;strokeWidth=2;" parent="1" vertex="1">
          <mxGeometry x="160" y="-420" width="510" height="220" as="geometry" />
        </mxCell>
        <mxCell id="Z0OjpiHxo7PmqM8XsX5b-1" value="&lt;font style=&quot;font-size: 24px;&quot;&gt;异步处理心跳并上报 FIN&lt;/font&gt;" style="whiteSpace=wrap;html=1;rounded=1;strokeWidth=2;" parent="1" vertex="1">
          <mxGeometry x="860" y="-375" width="350" height="130" as="geometry" />
        </mxCell>
      </root>
    </mxGraphModel>
  </diagram>
  <diagram id="f11bbsyEAO1JXthi4yvl" name="注册加密">
    <mxGraphModel dx="1242" dy="847" grid="1" gridSize="10" guides="1" tooltips="1" connect="1" arrows="1" fold="1" page="1" pageScale="1" pageWidth="827" pageHeight="1169" math="0" shadow="0">
      <root>
        <mxCell id="0" />
        <mxCell id="1" parent="0" />
        <mxCell id="mECeYVA9vfqyu-FHwCY8-3" value="" style="edgeStyle=orthogonalEdgeStyle;rounded=0;orthogonalLoop=1;jettySize=auto;html=1;" parent="1" source="mECeYVA9vfqyu-FHwCY8-1" target="mECeYVA9vfqyu-FHwCY8-2" edge="1">
          <mxGeometry relative="1" as="geometry" />
        </mxCell>
        <mxCell id="mECeYVA9vfqyu-FHwCY8-1" value="设置原始密码password（不为空）" style="rounded=1;whiteSpace=wrap;html=1;" parent="1" vertex="1">
          <mxGeometry x="234" y="40" width="360" height="60" as="geometry" />
        </mxCell>
        <mxCell id="mECeYVA9vfqyu-FHwCY8-5" value="" style="edgeStyle=orthogonalEdgeStyle;rounded=0;orthogonalLoop=1;jettySize=auto;html=1;" parent="1" source="mECeYVA9vfqyu-FHwCY8-2" target="mECeYVA9vfqyu-FHwCY8-4" edge="1">
          <mxGeometry relative="1" as="geometry" />
        </mxCell>
        <mxCell id="mECeYVA9vfqyu-FHwCY8-2" value="对password计算sha-256转16进制字符串&amp;nbsp;得Token（忽略password）" style="whiteSpace=wrap;html=1;rounded=1;" parent="1" vertex="1">
          <mxGeometry x="205" y="170" width="418" height="60" as="geometry" />
        </mxCell>
        <mxCell id="mECeYVA9vfqyu-FHwCY8-7" value="" style="edgeStyle=orthogonalEdgeStyle;rounded=0;orthogonalLoop=1;jettySize=auto;html=1;" parent="1" source="mECeYVA9vfqyu-FHwCY8-4" target="mECeYVA9vfqyu-FHwCY8-6" edge="1">
          <mxGeometry relative="1" as="geometry" />
        </mxCell>
        <mxCell id="mECeYVA9vfqyu-FHwCY8-4" value="将Token添加到注册消息中" style="whiteSpace=wrap;html=1;rounded=1;" parent="1" vertex="1">
          <mxGeometry x="237" y="310" width="354" height="60" as="geometry" />
        </mxCell>
        <mxCell id="mECeYVA9vfqyu-FHwCY8-9" value="" style="edgeStyle=orthogonalEdgeStyle;rounded=0;orthogonalLoop=1;jettySize=auto;html=1;" parent="1" source="mECeYVA9vfqyu-FHwCY8-6" target="mECeYVA9vfqyu-FHwCY8-8" edge="1">
          <mxGeometry relative="1" as="geometry" />
        </mxCell>
        <mxCell id="mECeYVA9vfqyu-FHwCY8-6" value="序列化注册消息的 stream" style="whiteSpace=wrap;html=1;rounded=1;" parent="1" vertex="1">
          <mxGeometry x="281" y="440" width="266" height="60" as="geometry" />
        </mxCell>
        <mxCell id="mECeYVA9vfqyu-FHwCY8-11" value="" style="edgeStyle=orthogonalEdgeStyle;rounded=0;orthogonalLoop=1;jettySize=auto;html=1;" parent="1" source="mECeYVA9vfqyu-FHwCY8-8" target="mECeYVA9vfqyu-FHwCY8-10" edge="1">
          <mxGeometry relative="1" as="geometry" />
        </mxCell>
        <mxCell id="mECeYVA9vfqyu-FHwCY8-8" value="生成Token的SHA-256，并作为AES-256算法的加密块" style="whiteSpace=wrap;html=1;rounded=1;" parent="1" vertex="1">
          <mxGeometry x="237" y="570" width="354" height="60" as="geometry" />
        </mxCell>
        <mxCell id="mECeYVA9vfqyu-FHwCY8-13" value="" style="edgeStyle=orthogonalEdgeStyle;rounded=0;orthogonalLoop=1;jettySize=auto;html=1;" parent="1" source="mECeYVA9vfqyu-FHwCY8-10" target="mECeYVA9vfqyu-FHwCY8-12" edge="1">
          <mxGeometry relative="1" as="geometry" />
        </mxCell>
        <mxCell id="mECeYVA9vfqyu-FHwCY8-10" value="&lt;div style=&quot;text-align: start;&quot;&gt;&lt;span style=&quot;background-color: initial;&quot;&gt;生成随机的Nonce，使用AES-GCM加密stream, 将Nonce附加到消息头&lt;/span&gt;&lt;/div&gt;" style="whiteSpace=wrap;html=1;rounded=1;" parent="1" vertex="1">
          <mxGeometry x="203" y="700" width="422" height="60" as="geometry" />
        </mxCell>
        <mxCell id="mECeYVA9vfqyu-FHwCY8-12" value="将加密后的stream填充到frame中" style="whiteSpace=wrap;html=1;rounded=1;" parent="1" vertex="1">
          <mxGeometry x="277" y="830" width="274" height="60" as="geometry" />
        </mxCell>
      </root>
    </mxGraphModel>
  </diagram>
</mxfile>
